{
	"asset":{
		"generator":"Khronos glTF Blender I/O v4.1.63",
		"version":"2.0"
	},
	"extensionsUsed":[
		"KHR_materials_specular",
		"KHR_materials_ior"
	],
	"scene":0,
	"scenes":[
		{
			"name":"Scene",
			"nodes":[
				0
			]
		}
	],
	"nodes":[
		{
			"mesh":0,
			"name":"\u30b0\u30ea\u30c3\u30c9",
			"rotation":[
				0,
				0.7071068286895752,
				0.7071068286895752,
				3.0908616110991716e-08
			],
			"scale":[
				0.059665992856025696,
				0.018252449110150337,
				0.0596659854054451
			]
		}
	],
	"materials":[
		{
			"doubleSided":true,
			"emissiveFactor":[
				0.008218704722821712,
				0.007361097261309624,
				0
			],
			"extensions":{
				"KHR_materials_specular":{
					"specularColorTexture":{
						"index":0
					}
				},
				"KHR_materials_ior":{
					"ior":1000
				}
			},
			"name":"56",
			"normalTexture":{
				"index":1,
				"scale":0.5
			},
			"pbrMetallicRoughness":{
				"baseColorTexture":{
					"index":2
				},
				"metallicFactor":0.009090960025787354,
				"metallicRoughnessTexture":{
					"index":3
				}
			}
		}
	],
	"meshes":[
		{
			"name":"\u30b0\u30ea\u30c3\u30c9",
			"primitives":[
				{
					"attributes":{
						"POSITION":0,
						"NORMAL":1,
						"TEXCOORD_0":2
					},
					"indices":3,
					"material":0
				}
			]
		}
	],
	"textures":[
		{
			"sampler":0,
			"source":0
		},
		{
			"sampler":0,
			"source":1
		},
		{
			"sampler":0,
			"source":2
		},
		{
			"sampler":0,
			"source":3
		}
	],
	"images":[
		{
			"mimeType":"image/png",
			"name":"Image_1",
			"uri":"Image_1.png"
		},
		{
			"mimeType":"image/png",
			"name":"kizu_normal",
			"uri":"kizu_normal.png"
		},
		{
			"mimeType":"image/png",
			"name":"Image_0",
			"uri":"Image_0.png"
		},
		{
			"mimeType":"image/png",
			"name":"Image_1",
			"uri":"Image_1-1.png"
		}
	],
	"accessors":[
		{
			"bufferView":0,
			"componentType":5126,
			"count":2500,
			"max":[
				6.320097923278809,
				0.5857185125350952,
				6.388701915740967
			],
			"min":[
				-6.590706825256348,
				-0.5100248456001282,
				-6.341849327087402
			],
			"type":"VEC3"
		},
		{
			"bufferView":1,
			"componentType":5126,
			"count":2500,
			"type":"VEC3"
		},
		{
			"bufferView":2,
			"componentType":5126,
			"count":2500,
			"type":"VEC2"
		},
		{
			"bufferView":3,
			"componentType":5123,
			"count":14406,
			"type":"SCALAR"
		}
	],
	"bufferViews":[
		{
			"buffer":0,
			"byteLength":30000,
			"byteOffset":0,
			"target":34962
		},
		{
			"buffer":0,
			"byteLength":30000,
			"byteOffset":30000,
			"target":34962
		},
		{
			"buffer":0,
			"byteLength":20000,
			"byteOffset":60000,
			"target":34962
		},
		{
			"buffer":0,
			"byteLength":28812,
			"byteOffset":80000,
			"target":34963
		}
	],
	"samplers":[
		{
			"magFilter":9729,
			"minFilter":9987
		}
	],
	"buffers":[
		{
			"byteLength":108812,
			"uri":"kin_umi.bin"
		}
	]
}
